<?xml version="1.0" standalone="no"?>
<!DOCTYPE svg PUBLIC "-//W3C//DTD SVG 20010904//EN"
 "http://www.w3.org/TR/2001/REC-SVG-20010904/DTD/svg10.dtd">
<svg version="1.0" xmlns="http://www.w3.org/2000/svg"
 width="527.000000pt" height="527.000000pt" viewBox="0 0 527.000000 527.000000"
 preserveAspectRatio="xMidYMid meet">
<metadata>
Created by potrace 1.11, written by Peter Selinger 2001-2013
</metadata>
<g transform="translate(0.000000,527.000000) scale(0.100000,-0.100000)"
fill="#000000" stroke="none">
<path d="M2379 5236 c-2 -2 -51 -7 -109 -10 -58 -4 -121 -9 -140 -11 -19 -3
-62 -7 -95 -10 -33 -3 -67 -8 -75 -10 -8 -2 -39 -7 -69 -10 -30 -4 -63 -9 -75
-11 -11 -2 -38 -6 -61 -10 -127 -19 -472 -100 -592 -139 -28 -9 -56 -18 -64
-19 -8 -2 -21 -5 -29 -8 -8 -3 -82 -29 -165 -58 -245 -86 -612 -250 -742 -332
-59 -38 -107 -93 -135 -158 -27 -61 -28 -216 -3 -460 3 -25 7 -72 10 -105 3
-33 8 -71 10 -85 2 -14 7 -45 10 -70 20 -155 77 -437 117 -575 11 -38 26 -95
33 -125 24 -95 125 -386 175 -502 164 -388 305 -653 513 -963 55 -81 271 -373
286 -385 3 -3 31 -34 61 -70 123 -146 368 -397 510 -522 89 -80 320 -266 362
-293 9 -5 60 -41 114 -80 125 -89 155 -108 234 -146 59 -29 74 -32 165 -33
132 -1 171 12 315 104 8 5 81 56 162 113 358 254 650 525 962 890 28 32 57 68
65 80 8 12 18 24 21 27 32 24 290 398 390 565 82 135 280 519 280 540 0 2 13
32 29 67 64 139 180 462 222 618 32 120 59 223 64 245 2 11 11 52 20 90 9 39
17 81 19 95 2 14 6 34 9 45 3 11 8 38 12 60 3 22 10 66 16 98 6 33 12 73 14
90 6 58 17 152 20 168 9 47 20 240 19 354 0 124 -1 133 -29 189 -16 32 -49 76
-75 98 -52 46 -378 209 -565 283 -66 26 -133 53 -150 60 -138 57 -600 192
-723 211 -19 3 -44 8 -56 10 -23 5 -152 29 -201 38 -16 3 -50 8 -75 11 -25 3
-56 8 -70 10 -62 10 -133 17 -295 31 -77 7 -640 15 -646 10z"/>
</g>
</svg>
